<?xml version="1.0" encoding="UTF-8"?>
<svg xmlns="http://www.w3.org/2000/svg" xmlns:xlink="http://www.w3.org/1999/xlink" width="1800px" height="919px" viewBox="0 0 1799 919" version="1.1">
<g id="surface1">
<path style=" stroke:none;fill-rule:nonzero;fill:rgb(61.960787%,36.078432%,85.882354%);fill-opacity:1;" d="M 663.015625 57.4375 C 668.605469 62.144531 674.148438 66.914062 679.628906 71.742188 C 683.515625 75.15625 683.515625 75.15625 687.5 78.640625 C 736.996094 124.976562 766.859375 192.011719 769.410156 259.746094 C 770.027344 304.839844 767.652344 346.222656 754.617188 389.464844 C 753.964844 391.699219 753.3125 393.941406 752.636719 396.246094 C 743.15625 428.03125 730.652344 458.3125 717.125 488.535156 C 720.566406 485.714844 724.023438 482.890625 727.570312 480 C 736.9375 473.375 741.4375 471.378906 753.132812 469.320312 C 768.472656 472.121094 774.941406 476.921875 785.304688 488.535156 C 787.84375 499.269531 788.714844 508.339844 788.714844 519.285156 C 790.863281 517.8125 793.027344 516.339844 795.242188 514.816406 C 846.09375 480.039062 897.140625 445.554688 948.425781 411.421875 C 954.277344 407.519531 960.125 403.617188 965.96875 399.714844 C 959.84375 402.589844 953.742188 405.519531 947.644531 408.46875 C 944.246094 410.089844 940.84375 411.714844 937.339844 413.398438 C 924.144531 420.292969 912.316406 428.996094 900.207031 437.644531 C 884.539062 448.65625 868.363281 458.851562 852.199219 469.113281 C 848.894531 471.21875 845.585938 473.335938 842.175781 475.519531 C 815.625 492.421875 815.625 492.421875 802.355469 498.785156 C 802.03125 487.910156 802.003906 481.445312 805.753906 471.457031 C 815.558594 462.300781 826.972656 456.539062 838.773438 450.324219 C 845.636719 446.5 852.480469 442.675781 859.339844 438.855469 C 862.878906 436.921875 866.421875 434.984375 870.0625 432.992188 C 890.21875 421.773438 909.851562 409.648438 929.582031 397.671875 C 972.859375 371.820312 1026.789062 343.496094 1078.46875 355.296875 C 1081.875 358.71875 1081.875 358.71875 1083.367188 369.183594 C 1081.3125 387.675781 1073.382812 396.242188 1061.417969 409.960938 C 1059.230469 412.601562 1057.042969 415.25 1054.789062 417.972656 C 1028.132812 449.117188 996.890625 474.636719 963.632812 498.359375 C 961.726562 499.734375 959.804688 501.109375 957.851562 502.515625 C 946.082031 510.886719 934.113281 518.8125 921.925781 526.554688 C 916.230469 530.328125 910.523438 534.085938 904.820312 537.863281 C 902.050781 539.53125 899.285156 541.199219 896.4375 542.917969 C 888.5 548.277344 882.851562 552.421875 877.34375 560.28125 C 876.089844 573.390625 877.804688 585.082031 880.75 597.863281 C 883.125 596.511719 885.488281 595.167969 887.945312 593.777344 C 901.6875 586.09375 911.933594 580.925781 927.839844 580.136719 C 942.207031 585.511719 947.679688 591.710938 955.742188 604.691406 C 957.46875 614.289062 957.46875 614.289062 955.742188 625.199219 C 949.890625 633.511719 942.78125 640.121094 935.292969 646.972656 C 933.347656 648.839844 931.398438 650.699219 929.378906 652.617188 C 924.566406 657.195312 919.714844 661.703125 914.839844 666.1875 C 919.507812 681.175781 925.304688 695.011719 932.136719 709.136719 C 934.160156 713.367188 936.164062 717.597656 938.179688 721.824219 C 941.316406 728.421875 944.480469 735 947.675781 741.574219 C 950.773438 747.964844 953.808594 754.390625 956.851562 760.808594 C 958.683594 764.609375 960.519531 768.417969 962.398438 772.339844 C 966.03125 782.523438 966.910156 786.308594 962.570312 796.007812 C 957.011719 801.828125 957.011719 801.828125 950.421875 807.117188 C 948.234375 808.886719 946.050781 810.675781 943.804688 812.507812 C 942.121094 813.828125 940.445312 815.148438 938.707031 816.515625 C 892.316406 770.644531 892.316406 770.644531 875.851562 750.515625 C 863.277344 736.953125 848.628906 727.9375 832.421875 719.300781 C 828.488281 717.191406 824.550781 715.082031 820.480469 712.898438 C 816.359375 710.714844 812.226562 708.519531 808.101562 706.332031 C 803.910156 704.09375 799.710938 701.851562 795.523438 699.605469 C 785.304688 694.148438 775.082031 688.707031 764.851562 683.273438 C 769.789062 670.253906 775.28125 660.617188 784.03125 649.746094 C 786.183594 647.046875 788.328125 644.34375 790.554688 641.570312 C 792.191406 639.546875 793.835938 637.523438 795.527344 635.445312 C 793.878906 636.679688 792.226562 637.925781 790.535156 639.207031 C 785.675781 642.847656 780.816406 646.46875 775.9375 650.066406 C 768.382812 655.695312 768.382812 655.695312 762.171875 661.382812 C 748.304688 673.351562 736.714844 677.914062 718.832031 681.773438 C 678.519531 690.832031 643.550781 714.191406 608.046875 734.511719 C 600.71875 738.660156 593.402344 742.800781 586.074219 746.941406 C 575.753906 752.769531 565.441406 758.609375 555.164062 764.492188 C 540.015625 773.148438 524.894531 781.585938 509.191406 789.179688 C 510.085938 792.96875 510.996094 796.769531 511.921875 800.679688 C 518.292969 827.515625 524.484375 854.3125 529.640625 881.421875 C 517.832031 888.1875 517.832031 888.1875 505.78125 895.085938 C 503.964844 893.445312 502.15625 891.789062 500.296875 890.089844 C 497.878906 887.9375 495.476562 885.773438 492.996094 883.550781 C 490.621094 881.421875 488.246094 879.277344 485.808594 877.074219 C 478.785156 871.394531 473.269531 867.550781 464.871094 864.34375 C 458.125 865.59375 458.125 865.59375 451.53125 869.046875 C 448.96875 870.222656 446.410156 871.390625 443.761719 872.585938 C 441.03125 873.882812 438.296875 875.175781 435.464844 876.507812 C 403.878906 890.652344 372.363281 900.71875 338.746094 908.753906 C 333.851562 909.953125 333.851562 909.953125 328.851562 911.179688 C 250.570312 927.859375 157.417969 921.621094 88.671875 877.761719 C 39.601562 841.824219 11.082031 787.144531 1.269531 727.683594 C -6.03125 641.761719 14.949219 564.089844 70.429688 496.894531 C 161.804688 389.742188 295.65625 312.449219 434.191406 286.972656 C 444.640625 286.546875 444.640625 286.546875 451.238281 286.972656 C 438.367188 298.40625 423.40625 303.027344 407.5625 308.964844 C 290.585938 354.671875 184.832031 428.816406 117.175781 536.367188 C 120.046875 534.605469 122.925781 532.835938 125.882812 531.019531 C 129.613281 528.761719 133.351562 526.515625 137.203125 524.191406 C 140.921875 521.9375 144.632812 519.679688 148.460938 517.351562 C 151.640625 515.734375 154.808594 514.121094 158.078125 512.453125 C 160.320312 513.582031 162.574219 514.707031 164.894531 515.871094 C 162.457031 517.894531 160.039062 519.929688 157.535156 522.023438 C 120.234375 554.363281 93.492188 591.34375 88.613281 642.039062 C 86.863281 681.3125 94.828125 714.203125 120.445312 744.75 C 145.601562 769.535156 177.644531 780.273438 212.191406 783.625 C 242.554688 782.25 271.578125 773.398438 297.839844 758.4375 C 285.464844 752.792969 273.089844 747.15625 260.339844 741.347656 C 262.027344 727.820312 262.027344 727.820312 263.753906 714.011719 C 294.351562 715.882812 323.980469 720.484375 354.089844 726.1875 C 362.5 727.769531 370.910156 729.34375 379.335938 730.902344 C 382.996094 731.59375 386.667969 732.285156 390.449219 733.003906 C 400.71875 734.871094 400.71875 734.871094 413.746094 734.511719 C 409.527344 733.457031 405.304688 732.402344 400.960938 731.316406 C 392.34375 727.15625 387.65625 723.488281 383.671875 714.675781 C 381.15625 707.039062 379.132812 699.433594 377.3125 691.597656 C 376.675781 688.972656 376.050781 686.34375 375.40625 683.636719 C 373.859375 676 373.859375 676 372.832031 662.773438 C 377.875 656.824219 377.875 656.824219 383.058594 652.527344 C 381.523438 650.890625 379.996094 649.277344 378.414062 647.597656 C 330.046875 594.847656 290.433594 532.9375 260.339844 468.039062 C 234.675781 471.484375 212.519531 480.160156 189.101562 490.796875 C 180.890625 494.351562 173.613281 497.039062 164.894531 498.785156 C 207.898438 406.425781 337.761719 355.085938 426.167969 321.933594 C 460.023438 309.824219 460.023438 309.824219 475.097656 314.308594 C 472.101562 317.023438 469.097656 319.75 466.011719 322.546875 C 462 326.207031 458.007812 329.867188 454.007812 333.519531 C 452.039062 335.308594 450.066406 337.089844 448.039062 338.925781 C 424.976562 359.511719 424.976562 359.511719 410.335938 386.050781 C 439.820312 407.480469 472.734375 417.441406 509.191406 413.375 C 546.855469 406.871094 577.441406 390.121094 602.050781 360.664062 C 625.15625 326.8125 633.664062 288.039062 626.160156 247.902344 C 617.445312 212.769531 599.578125 185.074219 569.699219 165.058594 C 533.015625 142.988281 496.347656 136.941406 454.097656 145.730469 C 419.160156 157.152344 392.140625 180.734375 372.832031 211.816406 C 367.566406 222.984375 363.125 234.261719 359.203125 245.976562 C 362.578125 244.855469 365.949219 243.722656 369.417969 242.558594 C 383.257812 241.761719 397.109375 241.929688 410.976562 241.925781 C 414.761719 241.878906 418.554688 241.835938 422.445312 241.789062 C 443.523438 241.761719 461.761719 243.160156 481.914062 249.394531 C 471.671875 256.238281 464.460938 258.65625 452.691406 261.792969 C 448.835938 262.847656 444.980469 263.890625 441.007812 264.972656 C 436.867188 266.105469 432.722656 267.230469 428.4375 268.398438 C 321.679688 298.355469 220.972656 341.351562 130.800781 406.546875 C 127.429688 404.851562 127.429688 404.851562 123.984375 403.128906 C 145.914062 369.488281 169.742188 333.066406 203.277344 310.113281 C 216.605469 296.59375 215.835938 285.277344 216.449219 266.90625 C 221.558594 189.339844 250.746094 123.226562 307 69.1875 C 407.722656 -16.617188 557.179688 -24.679688 663.015625 57.4375 Z M 747.8125 481.707031 C 746.683594 483.960938 745.558594 486.210938 744.398438 488.535156 C 753.359375 501.789062 753.359375 501.789062 767.40625 508.398438 C 771.199219 508.710938 771.199219 508.710938 775.082031 509.039062 C 774.6875 500.800781 774.6875 500.800781 771.667969 491.953125 C 760.816406 483.78125 760.816406 483.78125 747.8125 481.707031 Z M 918.25 591.03125 C 920.097656 603.960938 925.324219 610.136719 935.292969 618.363281 C 938.671875 618.363281 942.042969 618.363281 945.523438 618.363281 C 944.375 607.75 943.5 602.636719 935.722656 595.089844 C 928.367188 590.195312 928.367188 590.195312 918.25 591.03125 Z M 918.25 591.03125 "/>
<path style=" stroke:none;fill-rule:nonzero;fill:rgb(91.764706%,57.647061%,22.745098%);fill-opacity:1;" d="M 663.015625 57.4375 C 668.605469 62.144531 674.148438 66.914062 679.628906 71.742188 C 683.515625 75.15625 683.515625 75.15625 687.5 78.640625 C 736.996094 124.976562 766.859375 192.011719 769.410156 259.746094 C 770.027344 304.855469 767.632812 346.21875 754.617188 389.464844 C 753.945312 391.777344 753.269531 394.082031 752.589844 396.464844 C 748.148438 411.441406 743.109375 426.09375 737.582031 440.710938 C 736.324219 444.023438 735.078125 447.34375 733.785156 450.753906 C 725.71875 469.421875 716.105469 482.113281 698.339844 492.394531 C 681.949219 498.148438 668.539062 493.347656 652.355469 488.535156 C 647.535156 487.238281 642.710938 485.960938 637.886719 484.683594 C 607.253906 476.492188 576.90625 467.375 546.683594 457.800781 C 546.683594 447.542969 546.683594 447.542969 554.789062 438.898438 C 558.398438 435.5 562.011719 432.117188 565.648438 428.757812 C 601.339844 394.253906 626.683594 352.785156 629.066406 302.175781 C 629.296875 258.113281 624.09375 216.871094 593.160156 182.558594 C 558.703125 152.160156 523.472656 140.652344 478.304688 142.316406 C 441.898438 145.503906 414.710938 161.839844 389.96875 188.25 C 375.273438 205.941406 366.496094 224.230469 359.203125 245.976562 C 362.578125 244.855469 365.949219 243.722656 369.417969 242.558594 C 383.257812 241.761719 397.109375 241.929688 410.976562 241.925781 C 414.761719 241.878906 418.554688 241.835938 422.445312 241.789062 C 443.523438 241.761719 461.761719 243.160156 481.914062 249.394531 C 471.671875 256.238281 464.460938 258.65625 452.691406 261.792969 C 448.835938 262.847656 444.980469 263.890625 441.007812 264.972656 C 436.867188 266.105469 432.722656 267.230469 428.4375 268.398438 C 321.679688 298.355469 220.972656 341.351562 130.800781 406.546875 C 128.558594 405.417969 126.304688 404.292969 123.984375 403.128906 C 145.914062 369.488281 169.742188 333.066406 203.277344 310.113281 C 216.605469 296.59375 215.835938 285.277344 216.449219 266.90625 C 221.558594 189.339844 250.746094 123.226562 307 69.1875 C 407.722656 -16.617188 557.179688 -24.679688 663.015625 57.4375 Z M 663.015625 57.4375 "/>
<path style=" stroke:none;fill-rule:nonzero;fill:rgb(91.37255%,57.254905%,23.921569%);fill-opacity:1;" d="M 451.238281 286.972656 C 438.296875 298.5 423.089844 303.199219 407.136719 309.175781 C 374.558594 321.765625 344.09375 337.214844 313.425781 353.871094 C 304.191406 358.871094 295.011719 363.511719 285.304688 367.542969 C 240.925781 386.515625 202.082031 417.261719 164.894531 447.542969 C 163.046875 449.039062 161.207031 450.542969 159.296875 452.089844 C 107.714844 494.75 59.597656 558.769531 51.335938 627.242188 C 50.800781 636.402344 50.632812 645.476562 50.695312 654.660156 C 50.722656 659.550781 50.722656 659.550781 50.75 664.546875 C 51.988281 715.550781 70.378906 769.613281 106.949219 806.261719 C 144.925781 836.335938 181.882812 848.640625 229.875 848.328125 C 234.5625 848.289062 234.5625 848.289062 239.34375 848.269531 C 310.195312 847.011719 372.523438 822.128906 434.191406 789.179688 C 437.164062 787.613281 440.121094 786.058594 443.175781 784.4375 C 497.011719 756.019531 549.390625 725.453125 601.230469 693.523438 C 603.945312 691.855469 606.648438 690.191406 609.449219 688.476562 C 685.886719 641.410156 760.953125 591.207031 833.15625 537.847656 C 844.933594 529.214844 856.890625 520.84375 868.828125 512.453125 C 886.582031 499.945312 904.238281 487.300781 921.785156 474.488281 C 1009.605469 410.460938 1009.605469 410.460938 1061.417969 406.546875 C 1051.5625 422.554688 1040.6875 435.046875 1026.90625 447.75 C 1024.839844 449.667969 1022.773438 451.574219 1020.644531 453.546875 C 1004.605469 468.039062 987.773438 481.066406 970.238281 493.660156 C 967.691406 495.484375 965.167969 497.308594 962.570312 499.203125 C 948.9375 508.90625 935.128906 518.207031 921.035156 527.21875 C 918.179688 529.113281 915.320312 530.992188 912.375 532.949219 C 906.90625 536.566406 901.363281 540.070312 895.746094 543.453125 C 888.003906 548.640625 882.613281 552.570312 877.34375 560.28125 C 876.164062 573.355469 877.863281 585.101562 880.75 597.863281 C 883.125 596.511719 885.488281 595.167969 887.945312 593.777344 C 901.6875 586.09375 911.933594 580.925781 927.839844 580.136719 C 942.207031 585.511719 947.679688 591.710938 955.742188 604.691406 C 957.46875 614.289062 957.46875 614.289062 955.742188 625.199219 C 949.890625 633.511719 942.78125 640.121094 935.292969 646.972656 C 933.347656 648.839844 931.398438 650.699219 929.378906 652.617188 C 924.566406 657.195312 919.714844 661.703125 914.839844 666.1875 C 919.507812 681.175781 925.304688 695.011719 932.136719 709.136719 C 934.160156 713.367188 936.164062 717.597656 938.179688 721.824219 C 941.316406 728.421875 944.480469 735 947.675781 741.574219 C 950.773438 747.964844 953.808594 754.390625 956.851562 760.808594 C 958.683594 764.609375 960.519531 768.417969 962.398438 772.339844 C 966.03125 782.523438 966.910156 786.308594 962.570312 796.007812 C 957.011719 801.828125 957.011719 801.828125 950.421875 807.117188 C 948.234375 808.886719 946.050781 810.675781 943.804688 812.507812 C 942.121094 813.828125 940.445312 815.148438 938.707031 816.515625 C 892.316406 770.644531 892.316406 770.644531 875.851562 750.515625 C 863.277344 736.953125 848.628906 727.9375 832.421875 719.300781 C 828.488281 717.191406 824.550781 715.082031 820.480469 712.898438 C 816.359375 710.714844 812.226562 708.519531 808.101562 706.332031 C 803.910156 704.09375 799.710938 701.851562 795.523438 699.605469 C 785.304688 694.148438 775.082031 688.707031 764.851562 683.273438 C 769.789062 670.253906 775.28125 660.617188 784.03125 649.746094 C 786.183594 647.046875 788.328125 644.34375 790.554688 641.570312 C 792.191406 639.546875 793.835938 637.523438 795.527344 635.445312 C 793.878906 636.679688 792.226562 637.925781 790.535156 639.207031 C 785.675781 642.847656 780.816406 646.46875 775.9375 650.066406 C 768.382812 655.695312 768.382812 655.695312 762.171875 661.382812 C 748.304688 673.351562 736.714844 677.914062 718.832031 681.773438 C 678.519531 690.832031 643.550781 714.191406 608.046875 734.511719 C 600.71875 738.660156 593.402344 742.800781 586.074219 746.941406 C 575.753906 752.769531 565.441406 758.609375 555.164062 764.492188 C 540.015625 773.148438 524.894531 781.585938 509.191406 789.179688 C 510.085938 792.96875 510.996094 796.769531 511.921875 800.679688 C 518.292969 827.515625 524.484375 854.3125 529.640625 881.421875 C 517.832031 888.1875 517.832031 888.1875 505.78125 895.085938 C 503.964844 893.445312 502.15625 891.789062 500.296875 890.089844 C 496.683594 886.851562 496.683594 886.851562 492.996094 883.550781 C 490.621094 881.421875 488.246094 879.277344 485.808594 877.074219 C 478.785156 871.394531 473.269531 867.550781 464.871094 864.34375 C 458.125 865.59375 458.125 865.59375 451.53125 869.046875 C 448.96875 870.222656 446.410156 871.390625 443.761719 872.585938 C 441.03125 873.882812 438.296875 875.175781 435.464844 876.507812 C 403.878906 890.652344 372.363281 900.71875 338.746094 908.753906 C 335.484375 909.550781 332.21875 910.351562 328.851562 911.179688 C 250.570312 927.859375 157.417969 921.621094 88.671875 877.761719 C 39.601562 841.824219 11.082031 787.144531 1.269531 727.683594 C -6.03125 641.761719 14.949219 564.089844 70.429688 496.894531 C 152.957031 400.113281 316.953125 278.292969 451.238281 286.972656 Z M 918.25 591.03125 C 920.097656 603.960938 925.324219 610.136719 935.292969 618.363281 C 938.671875 618.363281 942.042969 618.363281 945.523438 618.363281 C 944.375 607.75 943.5 602.636719 935.722656 595.089844 C 928.367188 590.195312 928.367188 590.195312 918.25 591.03125 Z M 918.25 591.03125 "/>
<path style=" stroke:none;fill-rule:nonzero;fill:rgb(61.960787%,36.078432%,85.882354%);fill-opacity:1;" d="M 498.105469 50.824219 C 515.65625 60.824219 531.40625 72.195312 546.683594 85.410156 C 548.957031 87.359375 551.230469 89.320312 553.566406 91.324219 C 591.253906 126.25 619.960938 178.132812 628.503906 228.898438 C 627.050781 236.832031 627.050781 236.832031 625.085938 242.558594 C 624.257812 240.582031 623.433594 238.597656 622.582031 236.558594 C 604.929688 195.304688 578.496094 164.492188 536.242188 147.328125 C 501 137 459.679688 139.75 427.371094 157.152344 C 392.84375 178.671875 372.035156 207.6875 359.203125 245.976562 C 362.578125 244.855469 365.949219 243.722656 369.417969 242.558594 C 383.257812 241.761719 397.109375 241.929688 410.976562 241.925781 C 414.761719 241.878906 418.554688 241.835938 422.445312 241.789062 C 443.523438 241.761719 461.761719 243.160156 481.914062 249.394531 C 471.671875 256.238281 464.460938 258.65625 452.691406 261.792969 C 448.835938 262.847656 444.980469 263.890625 441.007812 264.972656 C 436.867188 266.105469 432.722656 267.230469 428.4375 268.398438 C 321.679688 298.355469 220.972656 341.351562 130.800781 406.546875 C 128.558594 405.417969 126.304688 404.292969 123.984375 403.128906 C 145.914062 369.488281 169.742188 333.066406 203.277344 310.113281 C 216.605469 296.59375 215.835938 285.277344 216.449219 266.90625 C 221.558594 189.339844 250.746094 123.226562 307 69.1875 C 372.183594 13.089844 421.917969 10.984375 498.105469 50.824219 Z M 498.105469 50.824219 "/>
<path style=" stroke:none;fill-rule:nonzero;fill:rgb(91.764706%,57.647061%,22.745098%);fill-opacity:1;" d="M 473.714844 524.835938 C 477.480469 526.671875 481.246094 528.507812 485.117188 530.402344 C 491.128906 533.359375 491.128906 533.359375 497.253906 536.367188 C 529.511719 552.160156 561.886719 567.5 594.992188 581.449219 C 601.722656 584.371094 608.316406 587.667969 614.855469 591.03125 C 616.550781 596.105469 616.550781 596.105469 618.269531 601.28125 C 615.652344 602.949219 613.039062 604.601562 610.34375 606.316406 C 606.566406 608.746094 602.777344 611.167969 598.882812 613.660156 C 596.808594 614.980469 594.738281 616.300781 592.601562 617.667969 C 578.917969 626.433594 565.476562 635.507812 552.160156 644.839844 C 549 647.019531 545.84375 649.207031 542.589844 651.460938 C 536.289062 655.824219 530.03125 660.234375 523.800781 664.703125 C 502.257812 679.546875 502.257812 679.546875 488.75 680.8125 C 469.574219 672.617188 452.496094 660.917969 435.066406 649.546875 C 430.667969 646.777344 430.667969 646.777344 426.1875 643.960938 C 423.558594 642.246094 420.917969 640.53125 418.191406 638.761719 C 408.320312 634.601562 403.441406 635.945312 393.285156 638.859375 C 386.46875 640.027344 379.664062 641.164062 372.832031 642.277344 C 329.019531 589.121094 329.019531 589.121094 314.890625 560.28125 C 329.40625 554.746094 343.960938 549.359375 358.652344 544.277344 C 361.507812 543.292969 364.355469 542.320312 367.285156 541.292969 C 373.097656 539.296875 378.914062 537.304688 384.734375 535.3125 C 401.800781 529.40625 418.019531 522.808594 434.171875 514.679688 C 448.613281 509.972656 460.816406 518.492188 473.714844 524.835938 Z M 473.714844 524.835938 "/>
<path style=" stroke:none;fill-rule:nonzero;fill:rgb(61.960787%,36.078432%,86.274511%);fill-opacity:1;" d="M 1695.464844 478.289062 C 1709.917969 477.976562 1709.917969 477.976562 1724.65625 477.652344 C 1727.636719 477.554688 1730.625 477.464844 1733.703125 477.363281 C 1752.011719 477.171875 1764.617188 479.511719 1780.6875 488.535156 C 1788.269531 495.984375 1790.566406 500.0625 1792.269531 510.53125 C 1792.238281 513.417969 1792.21875 516.308594 1792.1875 519.285156 C 1792.21875 522.167969 1792.238281 525.058594 1792.269531 528.042969 C 1790.644531 537.964844 1787.550781 542.785156 1780.6875 550.035156 C 1778.441406 550.035156 1776.183594 550.035156 1773.863281 550.035156 C 1775.054688 552.167969 1776.246094 554.316406 1777.476562 556.523438 C 1779.027344 559.3125 1780.574219 562.101562 1782.171875 564.984375 C 1783.722656 567.761719 1785.269531 570.53125 1786.851562 573.390625 C 1789.429688 578.082031 1791.929688 582.824219 1794.320312 587.609375 C 1783.757812 589.066406 1774.136719 589.714844 1763.644531 587.609375 C 1758.179688 581.921875 1754.8125 576.074219 1750.894531 569.257812 C 1746.363281 562.214844 1746.363281 562.214844 1733.597656 560.5 C 1730.011719 560.421875 1726.429688 560.351562 1722.738281 560.28125 C 1722.738281 569.304688 1722.738281 578.320312 1722.738281 587.609375 C 1713.734375 587.609375 1704.730469 587.609375 1695.464844 587.609375 C 1695.464844 551.542969 1695.464844 515.457031 1695.464844 478.289062 Z M 1722.738281 502.207031 C 1722.738281 513.480469 1722.738281 524.746094 1722.738281 536.367188 C 1727.589844 536.582031 1732.441406 536.796875 1737.441406 537.007812 C 1740.167969 537.128906 1742.894531 537.25 1745.710938 537.367188 C 1753.621094 536.972656 1753.621094 536.972656 1759.566406 531.867188 C 1764.738281 525.839844 1764.738281 525.839844 1763.007812 515.441406 C 1761.628906 510.578125 1761.628906 510.578125 1760.226562 505.625 C 1748.539062 499.765625 1735.636719 502.011719 1722.738281 502.207031 Z M 1722.738281 502.207031 "/>
<path style=" stroke:none;fill-rule:nonzero;fill:rgb(61.960787%,36.078432%,86.274511%);fill-opacity:1;" d="M 1129.59375 478.289062 C 1144.046875 477.976562 1144.046875 477.976562 1158.78125 477.652344 C 1161.769531 477.554688 1164.757812 477.464844 1167.839844 477.363281 C 1186.140625 477.171875 1198.757812 479.511719 1214.816406 488.535156 C 1222.40625 495.984375 1224.691406 500.0625 1226.398438 510.53125 C 1226.371094 513.417969 1226.351562 516.308594 1226.324219 519.285156 C 1226.351562 522.167969 1226.371094 525.058594 1226.398438 528.042969 C 1224.785156 537.964844 1221.679688 542.785156 1214.816406 550.035156 C 1212.566406 550.035156 1210.320312 550.035156 1208 550.035156 C 1209.1875 552.167969 1210.382812 554.316406 1211.605469 556.523438 C 1213.160156 559.3125 1214.714844 562.101562 1216.3125 564.984375 C 1217.847656 567.761719 1219.394531 570.53125 1220.976562 573.390625 C 1223.5625 578.082031 1226.066406 582.824219 1228.457031 587.609375 C 1217.890625 589.066406 1208.277344 589.714844 1197.769531 587.609375 C 1192.308594 581.921875 1188.949219 576.074219 1185.027344 569.257812 C 1180.503906 562.214844 1180.503906 562.214844 1167.726562 560.5 C 1164.148438 560.421875 1160.558594 560.351562 1156.863281 560.28125 C 1156.863281 569.304688 1156.863281 578.320312 1156.863281 587.609375 C 1147.871094 587.609375 1138.871094 587.609375 1129.59375 587.609375 C 1129.59375 551.542969 1129.59375 515.457031 1129.59375 478.289062 Z M 1156.863281 502.207031 C 1156.863281 513.480469 1156.863281 524.746094 1156.863281 536.367188 C 1161.71875 536.582031 1166.566406 536.796875 1171.566406 537.007812 C 1174.292969 537.128906 1177.03125 537.25 1179.835938 537.367188 C 1187.761719 536.972656 1187.761719 536.972656 1193.691406 531.867188 C 1198.878906 525.839844 1198.878906 525.839844 1197.128906 515.441406 C 1195.757812 510.578125 1195.757812 510.578125 1194.363281 505.625 C 1182.675781 499.765625 1169.761719 502.011719 1156.863281 502.207031 Z M 1156.863281 502.207031 "/>
<path style=" stroke:none;fill-rule:nonzero;fill:rgb(61.960787%,36.078432%,86.274511%);fill-opacity:1;" d="M 1289.808594 478.289062 C 1304.261719 477.976562 1304.261719 477.976562 1319 477.652344 C 1321.988281 477.554688 1324.976562 477.464844 1328.042969 477.363281 C 1346.359375 477.171875 1358.976562 479.511719 1375.03125 488.535156 C 1382.523438 495.921875 1384.875 500.085938 1386.742188 510.414062 C 1386.757812 524.601562 1386.570312 533.949219 1379.726562 546.613281 C 1360.835938 562.558594 1340.558594 561.125 1317.085938 560.28125 C 1317.085938 569.304688 1317.085938 578.320312 1317.085938 587.609375 C 1308.078125 587.609375 1299.089844 587.609375 1289.808594 587.609375 C 1289.808594 551.542969 1289.808594 515.457031 1289.808594 478.289062 Z M 1317.085938 502.207031 C 1317.085938 513.480469 1317.085938 524.746094 1317.085938 536.367188 C 1321.933594 536.582031 1326.785156 536.796875 1331.78125 537.007812 C 1334.511719 537.128906 1337.238281 537.25 1340.054688 537.367188 C 1347.972656 536.972656 1347.972656 536.972656 1353.917969 531.867188 C 1359.082031 525.839844 1359.082031 525.839844 1357.351562 515.441406 C 1355.976562 510.578125 1355.976562 510.578125 1354.582031 505.625 C 1342.890625 499.765625 1329.976562 502.011719 1317.085938 502.207031 Z M 1317.085938 502.207031 "/>
<path style=" stroke:none;fill-rule:nonzero;fill:rgb(61.960787%,36.078432%,86.274511%);fill-opacity:1;" d="M 1593.203125 478.289062 C 1621.320312 478.289062 1649.445312 478.289062 1678.417969 478.289062 C 1678.417969 486.183594 1678.417969 494.078125 1678.417969 502.207031 C 1659.296875 502.207031 1640.167969 502.207031 1620.472656 502.207031 C 1620.472656 508.96875 1620.472656 515.734375 1620.472656 522.699219 C 1637.347656 522.699219 1654.214844 522.699219 1671.609375 522.699219 C 1671.609375 529.464844 1671.609375 536.222656 1671.609375 543.195312 C 1654.734375 543.195312 1637.859375 543.195312 1620.472656 543.195312 C 1620.472656 551.085938 1620.472656 558.980469 1620.472656 567.121094 C 1639.589844 567.121094 1658.71875 567.121094 1678.417969 567.121094 C 1678.417969 573.886719 1678.417969 580.644531 1678.417969 587.609375 C 1650.296875 587.609375 1622.171875 587.609375 1593.203125 587.609375 C 1593.203125 551.542969 1593.203125 515.457031 1593.203125 478.289062 Z M 1593.203125 478.289062 "/>
<path style=" stroke:none;fill-rule:nonzero;fill:rgb(61.960787%,36.078432%,86.274511%);fill-opacity:1;" d="M 1444.699219 477.652344 C 1448.570312 477.609375 1452.425781 477.554688 1456.410156 477.503906 C 1466.574219 478.25 1472.160156 479.796875 1480.707031 485.117188 C 1479.429688 495.160156 1479.429688 495.160156 1477.308594 505.625 C 1473.925781 507.3125 1473.925781 507.3125 1470.484375 509.039062 C 1467.386719 507.90625 1464.292969 506.78125 1461.105469 505.625 C 1448.90625 501.859375 1441.84375 502.691406 1429.582031 505.625 C 1429.582031 509.007812 1429.582031 512.390625 1429.582031 515.871094 C 1432.617188 516.660156 1435.652344 517.449219 1438.785156 518.257812 C 1442.777344 519.375 1446.78125 520.484375 1450.875 521.636719 C 1454.835938 522.707031 1458.785156 523.765625 1462.863281 524.875 C 1475.515625 530.222656 1480.457031 534.921875 1487.523438 546.613281 C 1489.148438 556.398438 1487.511719 564.671875 1484.109375 573.949219 C 1471.027344 587.414062 1459.289062 591.535156 1440.871094 591.882812 C 1423.632812 591.78125 1411.15625 587.753906 1395.484375 580.78125 C 1398.476562 564.554688 1398.476562 564.554688 1402.300781 556.867188 C 1405.046875 557.992188 1407.78125 559.121094 1410.613281 560.28125 C 1425.273438 564.40625 1438.328125 564.308594 1453.4375 563.703125 C 1453.4375 560.320312 1453.4375 556.9375 1453.4375 553.449219 C 1450.640625 552.621094 1447.851562 551.796875 1444.96875 550.941406 C 1439.46875 549.21875 1439.46875 549.21875 1433.835938 547.46875 C 1428.382812 545.800781 1428.382812 545.800781 1422.804688 544.105469 C 1411.816406 539.476562 1406.128906 535.582031 1398.894531 526.113281 C 1396.402344 515.660156 1396.9375 505.929688 1398.894531 495.371094 C 1411.25 478.289062 1424.71875 477.757812 1444.699219 477.652344 Z M 1444.699219 477.652344 "/>
<path style=" stroke:none;fill-rule:nonzero;fill:rgb(61.960787%,36.078432%,86.274511%);fill-opacity:1;" d="M 1487.523438 478.289062 C 1519.023438 478.289062 1550.523438 478.289062 1582.964844 478.289062 C 1582.964844 486.183594 1582.964844 494.078125 1582.964844 502.207031 C 1571.722656 502.207031 1560.46875 502.207031 1548.882812 502.207031 C 1548.882812 530.386719 1548.882812 558.578125 1548.882812 587.609375 C 1539.894531 587.609375 1530.882812 587.609375 1521.617188 587.609375 C 1521.617188 559.429688 1521.617188 531.242188 1521.617188 502.207031 C 1510.359375 502.207031 1499.121094 502.207031 1487.523438 502.207031 C 1487.523438 494.3125 1487.523438 486.417969 1487.523438 478.289062 Z M 1487.523438 478.289062 "/>
<path style=" stroke:none;fill-rule:nonzero;fill:rgb(61.960787%,36.078432%,86.274511%);fill-opacity:1;" d="M 1023.917969 478.289062 C 1055.417969 478.289062 1086.914062 478.289062 1119.371094 478.289062 C 1119.371094 486.183594 1119.371094 494.078125 1119.371094 502.207031 C 1108.128906 502.207031 1096.871094 502.207031 1085.285156 502.207031 C 1085.285156 530.386719 1085.285156 558.578125 1085.285156 587.609375 C 1076.28125 587.609375 1067.28125 587.609375 1058.003906 587.609375 C 1058.003906 559.429688 1058.003906 531.242188 1058.003906 502.207031 C 1046.757812 502.207031 1035.511719 502.207031 1023.917969 502.207031 C 1023.917969 494.3125 1023.917969 486.417969 1023.917969 478.289062 Z M 1023.917969 478.289062 "/>
<path style=" stroke:none;fill-rule:nonzero;fill:rgb(61.960787%,36.078432%,86.274511%);fill-opacity:1;" d="M 1238.683594 478.289062 C 1247.683594 478.289062 1256.675781 478.289062 1265.953125 478.289062 C 1265.953125 514.367188 1265.953125 550.4375 1265.953125 587.609375 C 1256.949219 587.609375 1247.953125 587.609375 1238.683594 587.609375 C 1238.683594 551.542969 1238.683594 515.457031 1238.683594 478.289062 Z M 1238.683594 478.289062 "/>
<path style=" stroke:none;fill-rule:nonzero;fill:rgb(87.058824%,54.11765%,32.941177%);fill-opacity:1;" d="M 451.238281 286.972656 C 437.023438 299.4375 419.027344 307.46875 400.105469 307.46875 C 400.105469 305.210938 400.105469 302.964844 400.105469 300.636719 C 396.730469 299.511719 393.355469 298.382812 389.882812 297.222656 C 396.90625 295.492188 403.941406 293.785156 410.976562 292.097656 C 414.878906 291.148438 418.808594 290.195312 422.835938 289.210938 C 432.722656 287.261719 441.214844 286.519531 451.238281 286.972656 Z M 451.238281 286.972656 "/>
<path style=" stroke:none;fill-rule:nonzero;fill:rgb(84.313726%,52.156866%,38.82353%);fill-opacity:1;" d="M 938.707031 584.195312 C 947.003906 591.242188 947.003906 591.242188 952.328125 597.863281 C 948.925781 604.691406 948.925781 604.691406 942.109375 608.109375 C 939.042969 604.832031 939.042969 604.832031 935.933594 601.496094 C 928.78125 593.75 928.78125 593.75 918.25 591.03125 C 917.125 593.28125 915.992188 595.542969 914.839844 597.863281 C 914.839844 594.476562 914.839844 591.097656 914.839844 587.609375 C 912.589844 586.480469 910.34375 585.359375 908.023438 584.195312 C 918.871094 578.753906 927.121094 581.597656 938.707031 584.195312 Z M 938.707031 584.195312 "/>
<path style=" stroke:none;fill-rule:nonzero;fill:rgb(64.313728%,37.64706%,80.784315%);fill-opacity:1;" d="M 284.207031 362.132812 C 286.457031 363.257812 288.703125 364.386719 291.023438 365.550781 C 286.636719 368.980469 282.222656 372.402344 277.8125 375.804688 C 274.140625 378.65625 274.140625 378.65625 270.390625 381.5625 C 263.753906 386.050781 263.753906 386.050781 256.9375 386.050781 C 260.734375 374.613281 262.09375 373.679688 272.0625 368.113281 C 276.070312 366.136719 280.074219 364.167969 284.207031 362.132812 Z M 284.207031 362.132812 "/>
</g>
</svg>
