<?xml version="1.0" encoding="UTF-8"?>
<svg xmlns="http://www.w3.org/2000/svg" xmlns:xlink="http://www.w3.org/1999/xlink" width="2000px" height="447px" viewBox="0 0 1998 447" version="1.1">
<g id="surface1">
<path style=" stroke:none;fill-rule:nonzero;fill:rgb(61.960787%,36.078432%,86.274511%);fill-opacity:1;" d="M 1735.105469 61.351562 C 1772.246094 60.539062 1772.246094 60.539062 1810.140625 59.710938 C 1817.816406 59.46875 1825.492188 59.230469 1833.402344 58.984375 C 1880.472656 58.488281 1912.890625 64.46875 1954.183594 87.648438 C 1973.679688 106.746094 1979.574219 117.203125 1983.964844 144.070312 C 1983.898438 151.480469 1983.828125 158.894531 1983.761719 166.53125 C 1983.828125 173.941406 1983.894531 181.351562 1983.964844 188.988281 C 1979.800781 214.457031 1971.832031 226.8125 1954.183594 245.410156 C 1948.402344 245.410156 1942.617188 245.410156 1936.65625 245.410156 C 1939.71875 250.902344 1942.78125 256.394531 1945.933594 262.050781 C 1949.921875 269.214844 1953.910156 276.378906 1958.019531 283.757812 C 1961.984375 290.875 1965.949219 297.992188 1970.03125 305.328125 C 1976.664062 317.371094 1983.089844 329.527344 1989.238281 341.824219 C 1962.082031 345.550781 1937.363281 347.214844 1910.367188 341.824219 C 1896.324219 327.214844 1887.679688 312.242188 1877.609375 294.714844 C 1865.953125 276.660156 1865.953125 276.660156 1833.144531 272.253906 C 1823.925781 272.074219 1814.707031 271.890625 1805.210938 271.707031 C 1805.210938 294.84375 1805.210938 317.984375 1805.210938 341.824219 C 1782.074219 341.824219 1758.941406 341.824219 1735.105469 341.824219 C 1735.105469 249.269531 1735.105469 156.714844 1735.105469 61.351562 Z M 1805.210938 122.707031 C 1805.210938 151.628906 1805.210938 180.554688 1805.210938 210.351562 C 1817.679688 210.894531 1830.152344 211.4375 1843 211.996094 C 1850.015625 212.300781 1857.03125 212.605469 1864.257812 212.921875 C 1884.625 211.898438 1884.625 211.898438 1899.894531 198.816406 C 1913.195312 183.339844 1913.195312 183.339844 1908.726562 156.667969 C 1905.199219 144.195312 1905.199219 144.195312 1901.605469 131.46875 C 1871.554688 116.441406 1838.359375 122.230469 1805.210938 122.707031 Z M 1805.210938 122.707031 "/>
<path style=" stroke:none;fill-rule:nonzero;fill:rgb(61.960787%,36.078432%,86.274511%);fill-opacity:1;" d="M 271.65625 61.351562 C 308.800781 60.539062 308.800781 60.539062 346.691406 59.710938 C 354.367188 59.46875 362.046875 59.230469 369.953125 58.984375 C 417.023438 58.488281 449.441406 64.46875 490.738281 87.648438 C 510.230469 106.746094 516.128906 117.203125 520.519531 144.070312 C 520.449219 151.480469 520.382812 158.894531 520.3125 166.53125 C 520.378906 173.941406 520.449219 181.351562 520.519531 188.988281 C 516.355469 214.457031 508.386719 226.8125 490.738281 245.410156 C 484.953125 245.410156 479.167969 245.410156 473.210938 245.410156 C 476.273438 250.902344 479.332031 256.394531 482.488281 262.050781 C 486.476562 269.214844 490.460938 276.378906 494.570312 283.757812 C 498.535156 290.875 502.5 297.992188 506.585938 305.328125 C 513.214844 317.371094 519.640625 329.527344 525.789062 341.824219 C 498.632812 345.550781 473.917969 347.214844 446.921875 341.824219 C 432.878906 327.214844 424.230469 312.242188 414.160156 294.714844 C 402.507812 276.660156 402.507812 276.660156 369.695312 272.253906 C 360.476562 272.074219 351.261719 271.890625 341.761719 271.707031 C 341.761719 294.84375 341.761719 317.984375 341.761719 341.824219 C 318.628906 341.824219 295.492188 341.824219 271.65625 341.824219 C 271.65625 249.269531 271.65625 156.714844 271.65625 61.351562 Z M 341.761719 122.707031 C 341.761719 151.628906 341.761719 180.554688 341.761719 210.351562 C 354.234375 210.894531 366.707031 211.4375 379.554688 211.996094 C 386.570312 212.300781 393.585938 212.605469 400.8125 212.921875 C 421.175781 211.898438 421.175781 211.898438 436.445312 198.816406 C 449.75 183.339844 449.75 183.339844 445.277344 156.667969 C 441.753906 144.195312 441.753906 144.195312 438.15625 131.46875 C 408.105469 116.441406 374.914062 122.230469 341.761719 122.707031 Z M 341.761719 122.707031 "/>
<path style=" stroke:none;fill-rule:nonzero;fill:rgb(61.960787%,36.078432%,86.274511%);fill-opacity:1;" d="M 692.289062 61.351562 C 729.429688 60.539062 729.429688 60.539062 767.324219 59.710938 C 775 59.46875 782.675781 59.230469 790.585938 58.984375 C 837.65625 58.488281 870.074219 64.46875 911.367188 87.648438 C 930.617188 106.585938 936.675781 117.273438 941.457031 143.761719 C 941.511719 180.167969 941.015625 204.152344 923.417969 236.648438 C 874.867188 277.539062 822.722656 273.851562 762.394531 271.707031 C 762.394531 294.84375 762.394531 317.984375 762.394531 341.824219 C 739.261719 341.824219 716.125 341.824219 692.289062 341.824219 C 692.289062 249.269531 692.289062 156.714844 692.289062 61.351562 Z M 762.394531 122.707031 C 762.394531 151.628906 762.394531 180.554688 762.394531 210.351562 C 774.867188 210.894531 787.335938 211.4375 800.1875 211.996094 C 807.199219 212.300781 814.214844 212.605469 821.445312 212.921875 C 841.808594 211.898438 841.808594 211.898438 857.078125 198.816406 C 870.378906 183.339844 870.378906 183.339844 865.910156 156.667969 C 862.386719 144.195312 862.386719 144.195312 858.789062 131.46875 C 828.738281 116.441406 795.542969 122.230469 762.394531 122.707031 Z M 762.394531 122.707031 "/>
<path style=" stroke:none;fill-rule:nonzero;fill:rgb(61.960787%,36.078432%,86.274511%);fill-opacity:1;" d="M 1472.210938 61.351562 C 1544.507812 61.351562 1616.800781 61.351562 1691.289062 61.351562 C 1691.289062 81.597656 1691.289062 101.847656 1691.289062 122.707031 C 1642.128906 122.707031 1592.96875 122.707031 1542.316406 122.707031 C 1542.316406 140.058594 1542.316406 157.414062 1542.316406 175.292969 C 1585.695312 175.292969 1629.070312 175.292969 1673.761719 175.292969 C 1673.761719 192.648438 1673.761719 210.003906 1673.761719 227.882812 C 1630.386719 227.882812 1587.007812 227.882812 1542.316406 227.882812 C 1542.316406 248.128906 1542.316406 268.375 1542.316406 289.234375 C 1591.476562 289.234375 1640.636719 289.234375 1691.289062 289.234375 C 1691.289062 306.589844 1691.289062 323.945312 1691.289062 341.824219 C 1618.992188 341.824219 1546.699219 341.824219 1472.210938 341.824219 C 1472.210938 249.269531 1472.210938 156.714844 1472.210938 61.351562 Z M 1472.210938 61.351562 "/>
<path style=" stroke:none;fill-rule:nonzero;fill:rgb(61.960787%,36.078432%,86.274511%);fill-opacity:1;" d="M 1090.464844 59.710938 C 1100.394531 59.585938 1110.324219 59.460938 1120.554688 59.332031 C 1146.699219 61.257812 1161.058594 65.222656 1183.027344 78.882812 C 1179.738281 104.628906 1179.738281 104.628906 1174.261719 131.46875 C 1165.585938 135.808594 1165.585938 135.808594 1156.738281 140.234375 C 1148.785156 137.34375 1140.832031 134.449219 1132.636719 131.46875 C 1101.261719 121.816406 1083.113281 123.960938 1051.578125 131.46875 C 1051.578125 140.148438 1051.578125 148.824219 1051.578125 157.765625 C 1059.394531 159.785156 1067.214844 161.808594 1075.265625 163.894531 C 1085.523438 166.75 1095.78125 169.609375 1106.347656 172.554688 C 1116.515625 175.300781 1126.683594 178.046875 1137.15625 180.875 C 1169.683594 194.585938 1182.367188 206.648438 1200.550781 236.648438 C 1204.710938 261.734375 1200.503906 282.957031 1191.789062 306.765625 C 1158.140625 341.304688 1127.96875 351.886719 1080.605469 352.78125 C 1036.300781 352.519531 1004.230469 342.199219 963.949219 324.292969 C 971.613281 282.660156 971.613281 282.660156 981.472656 262.941406 C 988.523438 265.832031 995.570312 268.726562 1002.832031 271.707031 C 1040.519531 282.285156 1074.097656 282.023438 1112.921875 280.46875 C 1112.921875 271.792969 1112.921875 263.117188 1112.921875 254.175781 C 1105.738281 252.050781 1098.550781 249.929688 1091.148438 247.738281 C 1076.984375 243.332031 1076.984375 243.332031 1062.53125 238.839844 C 1048.503906 234.566406 1048.503906 234.566406 1034.191406 230.210938 C 1005.914062 218.34375 991.300781 208.316406 972.710938 184.058594 C 966.28125 157.210938 967.683594 132.257812 972.710938 105.175781 C 1004.480469 61.347656 1039.09375 60 1090.464844 59.710938 Z M 1090.464844 59.710938 "/>
<path style=" stroke:none;fill-rule:nonzero;fill:rgb(61.960787%,36.078432%,86.274511%);fill-opacity:1;" d="M 1200.550781 61.351562 C 1281.523438 61.351562 1362.496094 61.351562 1445.921875 61.351562 C 1445.921875 81.597656 1445.921875 101.847656 1445.921875 122.707031 C 1417.003906 122.707031 1388.085938 122.707031 1358.289062 122.707031 C 1358.289062 195.015625 1358.289062 267.324219 1358.289062 341.824219 C 1335.15625 341.824219 1312.019531 341.824219 1288.183594 341.824219 C 1288.183594 269.515625 1288.183594 197.207031 1288.183594 122.707031 C 1259.265625 122.707031 1230.347656 122.707031 1200.550781 122.707031 C 1200.550781 102.460938 1200.550781 82.214844 1200.550781 61.351562 Z M 1200.550781 61.351562 "/>
<path style=" stroke:none;fill-rule:nonzero;fill:rgb(61.960787%,36.078432%,86.274511%);fill-opacity:1;" d="M 8.761719 61.351562 C 89.734375 61.351562 170.707031 61.351562 254.132812 61.351562 C 254.132812 81.597656 254.132812 101.847656 254.132812 122.707031 C 225.214844 122.707031 196.292969 122.707031 166.5 122.707031 C 166.5 195.015625 166.5 267.324219 166.5 341.824219 C 143.367188 341.824219 120.230469 341.824219 96.394531 341.824219 C 96.394531 269.515625 96.394531 197.207031 96.394531 122.707031 C 67.476562 122.707031 38.558594 122.707031 8.761719 122.707031 C 8.761719 102.460938 8.761719 82.214844 8.761719 61.351562 Z M 8.761719 61.351562 "/>
<path style=" stroke:none;fill-rule:nonzero;fill:rgb(61.960787%,36.078432%,86.274511%);fill-opacity:1;" d="M 560.84375 61.351562 C 583.976562 61.351562 607.113281 61.351562 630.949219 61.351562 C 630.949219 153.910156 630.949219 246.464844 630.949219 341.824219 C 607.8125 341.824219 584.679688 341.824219 560.84375 341.824219 C 560.84375 249.269531 560.84375 156.714844 560.84375 61.351562 Z M 560.84375 61.351562 "/>
</g>
</svg>
